# xmcd CD database file
#
# Track frame offsets:
#	150
#	15672
#	26742
#	43754
#	57311
#	73424
#	83624
#	94426
#	111375
#	125066
#	138691
#	153958
#	164950
#	178290
#	193849
#
# Disc length: 2757 seconds
#
# Revision: 0
# Processed by: cddbd v1.4PL0 Copyright (c) Steve Scherf et al.
# Submitted via: CDex 1.50
#
DISCID=eb0ac30f
DTITLE=Jesse Dayton - Tall Texas Tales
DYEAR=1900
DGENRE=Country
TTITLE0=Never Turned My Back On You
TTITLE1=Every Now And Then
TTITLE2=Jumped Head First
TTITLE3=Creek Between Heaven And Hell
TTITLE4=Harris Country Blues
TTITLE5=Molasses Girl
TTITLE6=Arkansas Chrome (Duct Tape Song)
TTITLE7=One Year, Three Months, A Week To The Day
TTITLE8=Old Faithful
TTITLE9=Angel's Touch
TTITLE10=The Room Full Of Blues
TTITLE11=Blackjack
TTITLE12=River Done Rose
TTITLE13=Think I'll Go Out Tonight
TTITLE14=Beginning Of The End
EXTD=
EXTT0=
EXTT1=
EXTT2=
EXTT3=
EXTT4=
EXTT5=
EXTT6=
EXTT7=
EXTT8=
EXTT9=
EXTT10=
EXTT11=
EXTT12=
EXTT13=
EXTT14=
PLAYORDER=
